HIERARCHY
ROOT Joint1
{
	OFFSET 0.000000 0.000000 0.000000
	CHANNELS 6 Xposition Yposition Zposition Xrotation Yrotation Zrotation
	JOINT Joint2
	{
		OFFSET -0.000000 0.000000 1.456275
		CHANNELS 6 Xposition Yposition Zposition Xrotation Yrotation Zrotation
		JOINT Joint3
		{
			OFFSET -0.000000 0.000002 1.471446
			CHANNELS 6 Xposition Yposition Zposition Xrotation Yrotation Zrotation
			JOINT Joint4
			{
				OFFSET 0.625745 0.000000 0.917755
				CHANNELS 6 Xposition Yposition Zposition Xrotation Yrotation Zrotation
				JOINT Joint5
				{
					OFFSET -0.629534 0.000001 0.940221
					CHANNELS 6 Xposition Yposition Zposition Xrotation Yrotation Zrotation
					JOINT Joint6
					{
						OFFSET -0.000001 0.113772 1.960660
						CHANNELS 6 Xposition Yposition Zposition Xrotation Yrotation Zrotation
						JOINT Joint7
						{
							OFFSET -0.669733 -0.113771 0.388340
							CHANNELS 6 Xposition Yposition Zposition Xrotation Yrotation Zrotation
							End Site
							{
								OFFSET 0.005509 0.005509 0.438980
							}
						}
					}
				}
			}
		}
	}
}
MOTION
Frames: 22
Frame Time: 0.041667
0.000000 0.000000 0.000000 -0.000000 1.019410 -15.023780 -0.000000 -0.000000 1.456275 -0.000000 9.372933 -0.000000 -0.000000 0.000002 1.471446 -0.000005 -1.133455 77.353873 0.625745 0.000001 0.917755 -0.000000 50.110181 0.000001 -0.629533 0.000001 0.940220 -0.000002 1.709735 -43.952329 -0.000001 0.113772 1.960660 -88.303882 45.956183 -0.000007 -0.669733 -0.113771 0.388340 0.134375 1.975887 10.642829 
0.000000 0.000000 0.000000 -0.000000 1.019410 -15.007558 -0.000000 0.000000 1.456275 -0.000000 9.314187 -0.000002 -0.000000 0.000002 1.471445 -0.000004 -1.133455 77.270231 0.625745 0.000000 0.917755 -0.000001 50.201952 0.000001 -0.629533 0.000001 0.940221 -0.000001 1.709735 -43.904845 -0.000001 0.113772 1.960660 -88.303889 46.003752 0.000002 -0.669733 -0.113771 0.388340 0.135714 1.977853 10.777096 
0.000000 0.000000 0.000000 -0.000000 1.019410 -14.981320 -0.000000 -0.000000 1.456275 0.000000 9.219198 0.000002 -0.000000 0.000002 1.471446 -0.000004 -1.133455 77.135000 0.625745 0.000000 0.917755 0.000001 50.350331 0.000004 -0.629534 0.000001 0.940221 -0.000001 1.709742 -43.828053 -0.000001 0.113772 1.960661 -88.303889 46.080670 -0.000006 -0.669733 -0.113771 0.388340 0.137883 1.981048 10.994210 
0.000000 0.000000 0.000000 -0.000000 1.019410 -14.945729 -0.000000 0.000000 1.456275 -0.000000 9.090355 0.000000 -0.000000 0.000002 1.471446 -0.000004 -1.133454 76.951554 0.625745 0.000000 0.917755 0.000002 50.551610 -0.000000 -0.629534 0.000001 0.940221 -0.000000 1.709734 -43.723893 -0.000001 0.113772 1.960660 -88.303889 46.185005 0.000001 -0.669733 -0.113771 0.388340 0.140796 1.985388 11.288692 
0.000000 0.000000 0.000000 -0.000000 1.019410 -14.901453 -0.000000 -0.000000 1.456275 0.000000 8.930041 0.000000 -0.000000 0.000002 1.471446 -0.000004 -1.133455 76.723310 0.625745 0.000000 0.917755 -0.000000 50.802035 0.000002 -0.629534 0.000001 0.940221 0.000000 1.709734 -43.594301 -0.000001 0.113772 1.960661 -88.303889 46.314826 -0.000004 -0.669733 -0.113771 0.388340 0.144391 1.990808 11.655096 
0.000000 0.000000 0.000000 -0.000000 1.019410 -14.849140 -0.000000 -0.000000 1.456275 -0.000000 8.740653 -0.000001 -0.000000 0.000002 1.471446 -0.000004 -1.133455 76.453675 0.625745 0.000000 0.917754 -0.000001 51.097888 -0.000001 -0.629534 0.000001 0.940221 0.000001 1.709738 -43.441202 -0.000001 0.113772 1.960660 -88.303882 46.468188 -0.000002 -0.669733 -0.113771 0.388341 0.148590 1.997248 12.087961 
0.000000 0.000000 0.000000 -0.000000 1.019410 -14.789460 -0.000000 -0.000000 1.456275 -0.000000 8.524576 0.000000 -0.000000 0.000002 1.471446 -0.000004 -1.133453 76.146050 0.625744 0.000000 0.917755 -0.000003 51.435423 0.000002 -0.629534 0.000001 0.940221 -0.000000 1.709740 -43.266520 -0.000001 0.113772 1.960660 -88.303882 46.643174 -0.000008 -0.669733 -0.113771 0.388340 0.153329 2.004628 12.581827 
0.000000 0.000000 0.000000 -0.000000 1.019410 -14.723065 -0.000000 -0.000000 1.456275 0.000000 8.284202 -0.000000 -0.000000 0.000002 1.471445 -0.000004 -1.133455 75.803816 0.625745 0.000000 0.917755 -0.000002 51.810919 0.000001 -0.629533 0.000001 0.940221 -0.000000 1.709740 -43.072208 -0.000000 0.113772 1.960660 -88.303889 46.837814 -0.000002 -0.669733 -0.113771 0.388341 0.158519 2.012886 13.131232 
0.000000 0.000000 0.000000 -0.000000 1.019410 -14.650621 -0.000000 -0.000000 1.456275 0.000000 8.021918 -0.000001 -0.000000 0.000002 1.471446 -0.000004 -1.133454 75.430396 0.625745 0.000000 0.917755 -0.000000 52.220642 0.000003 -0.629534 0.000001 0.940221 0.000001 1.709738 -42.860175 -0.000001 0.113772 1.960661 -88.303889 47.050216 0.000002 -0.669733 -0.113771 0.388340 0.164097 2.021954 13.730712 
0.000000 0.000000 0.000000 -0.000000 1.019410 -14.572786 -0.000000 -0.000000 1.456275 0.000000 7.740113 -0.000001 -0.000000 0.000002 1.471446 -0.000004 -1.133454 75.029177 0.625745 0.000000 0.917755 0.000000 52.660864 -0.000000 -0.629533 0.000001 0.940221 0.000002 1.709737 -42.632361 -0.000000 0.113772 1.960661 -88.303896 47.278409 -0.000000 -0.669733 -0.113771 0.388341 0.169978 2.031759 14.374816 
0.000000 0.000000 0.000000 -0.000000 1.019410 -14.490219 -0.000000 -0.000000 1.456275 0.000000 7.441177 0.000001 -0.000000 0.000002 1.471446 -0.000004 -1.133454 74.603574 0.625745 0.000000 0.917755 -0.000002 53.127844 0.000002 -0.629534 0.000001 0.940221 0.000001 1.709737 -42.390702 -0.000001 0.113772 1.960660 -88.303896 47.520495 -0.000003 -0.669733 -0.113770 0.388340 0.176101 2.042233 15.058076 
0.000000 0.000000 0.000000 -0.000000 1.019410 -14.403576 -0.000000 -0.000000 1.456275 0.000000 7.127495 0.000001 -0.000000 0.000002 1.471446 -0.000004 -1.133455 74.156976 0.625745 0.000000 0.917755 -0.000002 53.617852 0.000005 -0.629534 0.000001 0.940221 0.000001 1.709736 -42.137124 -0.000001 0.113772 1.960661 -88.303889 47.774503 -0.000007 -0.669733 -0.113771 0.388340 0.182392 2.053303 15.775044 
0.000000 0.000000 0.000000 -0.000000 1.019410 -14.313260 -0.000000 -0.000000 1.456275 0.000000 6.800500 -0.000000 -0.000000 0.000002 1.471445 -0.000004 -1.133453 73.691423 0.625745 0.000000 0.917755 0.000004 54.128655 0.000006 -0.629534 0.000001 0.940221 0.000001 1.709736 -41.872779 -0.000000 0.113772 1.960661 -88.303889 48.039299 -0.000003 -0.669733 -0.113771 0.388339 0.188792 2.064927 16.522443 
0.000000 0.000000 0.000000 -0.000000 1.019410 -14.218593 -0.000000 0.000000 1.456275 0.000000 6.457774 -0.000000 -0.000000 0.000002 1.471446 -0.000004 -1.133455 73.203475 0.625745 0.000000 0.917755 -0.000000 54.664053 0.000005 -0.629534 0.000001 0.940220 0.000000 1.709738 -41.595712 -0.000001 0.113772 1.960661 -88.303889 48.316840 -0.000004 -0.669733 -0.113771 0.388340 0.195347 2.077195 17.305811 
0.000000 0.000000 0.000000 -0.000000 1.019410 -14.118650 -0.000000 0.000000 1.456275 0.000000 6.095934 0.000000 -0.000000 0.000002 1.471446 -0.000004 -1.133455 72.688307 0.625744 0.000000 0.917755 -0.000002 55.229296 0.000004 -0.629534 0.000001 0.940221 0.000001 1.709738 -41.303199 -0.000001 0.113772 1.960661 -88.303889 48.609852 -0.000010 -0.669734 -0.113771 0.388340 0.202078 2.090243 18.132860 
0.000000 0.000000 0.000000 -0.000000 1.019410 -14.012498 -0.000000 0.000000 1.456275 -0.000000 5.711602 -0.000000 -0.000000 0.000002 1.471446 -0.000004 -1.133455 72.141127 0.625745 0.000000 0.917755 0.000000 55.829666 -0.000003 -0.629534 0.000001 0.940221 -0.000003 1.709738 -40.992507 -0.000001 0.113772 1.960661 -88.303889 48.921080 -0.000004 -0.669734 -0.113771 0.388341 0.209023 2.104210 19.011336 
0.000000 0.000000 0.000000 -0.000000 1.019410 -13.899196 -0.000000 0.000000 1.456275 0.000000 5.301400 -0.000000 -0.000000 0.000002 1.471445 -0.000004 -1.133454 71.557098 0.625745 0.000000 0.917755 0.000002 56.470457 0.000004 -0.629534 0.000001 0.940221 0.000001 1.709736 -40.660902 -0.000001 0.113772 1.960661 -88.303889 49.253252 -0.000001 -0.669733 -0.113772 0.388339 0.216199 2.119231 19.948945 
0.000000 0.000000 0.000000 -0.000000 1.019410 -13.777815 -0.000000 0.000000 1.456275 -0.000000 4.861946 -0.000000 -0.000000 0.000002 1.471445 -0.000004 -1.133455 70.931439 0.625744 0.000000 0.917755 -0.000002 57.156942 0.000002 -0.629534 0.000001 0.940221 -0.000002 1.709739 -40.305643 -0.000000 0.113773 1.960660 -88.303889 49.609112 -0.000000 -0.669733 -0.113771 0.388339 0.223617 2.135449 20.953424 
0.000000 0.000000 0.000000 -0.000000 1.019410 -13.646785 -0.000000 -0.000000 1.456275 -0.000000 4.387556 0.000001 -0.000000 0.000002 1.471445 -0.000004 -1.133455 70.256043 0.625745 0.000000 0.917755 0.000008 57.897997 -0.000001 -0.629534 0.000001 0.940221 -0.000002 1.709739 -39.922148 -0.000001 0.113772 1.960660 -88.303882 49.993276 -0.000000 -0.669733 -0.113770 0.388340 0.231297 2.153102 22.037762 
0.000000 0.000000 0.000000 -0.000000 1.019410 -13.501988 -0.000000 -0.000000 1.456275 0.000000 3.863317 -0.000000 -0.000000 0.000002 1.471446 -0.000004 -1.133455 69.509660 0.625745 0.000000 0.917755 -0.000001 58.716937 0.000005 -0.629534 0.000001 0.940221 0.000001 1.709736 -39.498349 -0.000001 0.113772 1.960660 -88.303889 50.417793 -0.000001 -0.669733 -0.113771 0.388340 0.239395 2.172772 23.236064 
0.000000 0.000000 0.000000 -0.000000 1.019410 -13.338660 -0.000000 -0.000000 1.456275 0.000000 3.272004 0.000001 -0.000000 0.000002 1.471446 -0.000003 -1.133455 68.667785 0.625745 0.000000 0.917755 0.000002 59.640645 0.000006 -0.629534 0.000001 0.940221 -0.000004 1.709738 -39.020338 -0.000001 0.113772 1.960660 -88.303889 50.896630 -0.000002 -0.669733 -0.113771 0.388339 0.248030 2.195160 24.587701 
0.000000 0.000000 0.000000 -0.000000 1.019410 -13.152051 -0.000000 -0.000000 1.456275 0.000000 2.596397 -0.000000 -0.000000 0.000002 1.471445 -0.000003 -1.133455 67.705910 0.625744 0.000000 0.917755 0.000001 60.696032 0.000006 -0.629534 0.000001 0.940221 -0.000004 1.709737 -38.474172 -0.000001 0.113772 1.960660 -88.303889 51.443728 -0.000003 -0.669733 -0.113771 0.388339 0.257253 2.220978 26.132024 
